<svg xmlns="http://www.w3.org/2000/svg" viewBox="0 0 1400 900">
  <defs>
    <linearGradient id="bg" x1="0%" y1="0%" x2="100%" y2="100%">
      <stop offset="0%" style="stop-color:#0f1729"/>
      <stop offset="100%" style="stop-color:#0d1117"/>
    </linearGradient>
    <linearGradient id="sidebarBg" x1="0%" y1="0%" x2="0%" y2="100%">
      <stop offset="0%" style="stop-color:rgba(15,20,40,0.95)"/>
      <stop offset="100%" style="stop-color:rgba(13,17,23,0.95)"/>
    </linearGradient>
    <linearGradient id="glassGrad" x1="0%" y1="0%" x2="135%" y2="100%">
      <stop offset="0%" style="stop-color:rgba(34,38,74,0.55)"/>
      <stop offset="100%" style="stop-color:rgba(24,30,58,0.35)"/>
    </linearGradient>
    <linearGradient id="greenFill" x1="0%" y1="100%" x2="0%" y2="0%">
      <stop offset="0%" style="stop-color:rgba(59,158,255,0.05)"/>
      <stop offset="100%" style="stop-color:rgba(59,158,255,0)"/>
    </linearGradient>
    <filter id="glow">
      <feGaussianBlur stdDeviation="3" result="blur"/>
      <feMerge><feMergeNode in="blur"/><feMergeNode in="SourceGraphic"/></feMerge>
    </filter>
  </defs>

  <!-- Background -->
  <rect width="1400" height="900" fill="url(#bg)"/>

  <!-- ========== SIDEBAR (256px wide) ========== -->
  <rect x="0" y="0" width="256" height="900" fill="url(#sidebarBg)" stroke="rgba(59,158,255,0.15)" stroke-width="0.5"/>

  <!-- Sidebar Header -->
  <rect x="0" y="0" width="256" height="60" fill="rgba(59,158,255,0.03)"/>
  <line x1="0" y1="60" x2="256" y2="60" stroke="rgba(59,158,255,0.15)" stroke-width="0.5"/>

  <!-- Logo icon -->
  <g transform="translate(12, 12)">
    <rect width="36" height="36" rx="8" fill="rgba(59,158,255,0.15)" stroke="#3b9eff" stroke-width="1"/>
    <path d="M18 8 L27 13 L27 22 C27 27 22 31 18 33 C14 31 9 27 9 22 L9 13 Z"
          fill="none" stroke="#3b9eff" stroke-width="1.5"/>
    <path d="M13 22 L16 25 L23 17" fill="none" stroke="#3b9eff" stroke-width="1.8" stroke-linecap="round" stroke-linejoin="round"/>
  </g>

  <!-- Logo text -->
  <text x="56" y="28" font-family="Inter, 'Segoe UI', Arial, sans-serif" font-size="13" font-weight="700" fill="#3b9eff">CyberShield AI</text>
  <text x="56" y="46" font-family="Inter, 'Segoe UI', Arial, sans-serif" font-size="9" fill="#72748a" letter-spacing="1.5">SOC CONSOLE</text>

  <!-- ===== Operations Group ===== -->
  <text x="20" y="90" font-family="Inter, 'Segoe UI', Arial, sans-serif" font-size="10" fill="rgba(144,147,170,0.7)" letter-spacing="1.5" font-weight="500">OPERATIONS</text>

  <!-- Active Nav: Dashboard -->
  <g transform="translate(8, 100)">
    <rect width="240" height="32" rx="6" fill="rgba(144,147,170,0.1)"/>
    <line x1="0" y1="0" x2="0" y2="32" stroke="#3b9eff" stroke-width="2"/>
    <g transform="translate(12, 8)">
      <rect width="16" height="16" rx="2" fill="none" stroke="#e8eaf0" stroke-width="1.3"/>
      <rect x="2" y="2" width="5" height="5" rx="1" fill="#e8eaf0" opacity="0.6"/>
      <rect x="9" y="2" width="5" height="5" rx="1" fill="#e8eaf0" opacity="0.4"/>
      <rect x="2" y="9" width="5" height="5" rx="1" fill="#e8eaf0" opacity="0.4"/>
      <rect x="9" y="9" width="5" height="5" rx="1" fill="#e8eaf0" opacity="0.6"/>
    </g>
    <text x="36" y="21" font-family="Inter, 'Segoe UI', Arial, sans-serif" font-size="13" fill="#e8eaf0" font-weight="500">Dashboard</text>
  </g>

  <!-- Nav: New Analysis -->
  <g transform="translate(8, 140)">
    <rect width="240" height="32" rx="6" fill="transparent"/>
    <g transform="translate(12, 8)">
      <circle cx="8" cy="8" r="6" fill="none" stroke="#9093aa" stroke-width="1.3"/>
      <line x1="8" y1="4" x2="8" y2="12" stroke="#9093aa" stroke-width="1"/>
      <line x1="4" y1="8" x2="12" y2="8" stroke="#9093aa" stroke-width="1"/>
    </g>
    <text x="36" y="21" font-family="Inter, 'Segoe UI', Arial, sans-serif" font-size="13" fill="#9093aa">New Analysis</text>
  </g>

  <!-- Nav: Analysis History -->
  <g transform="translate(8, 180)">
    <rect width="240" height="32" rx="6" fill="transparent"/>
    <g transform="translate(12, 8)">
      <circle cx="8" cy="8" r="6" fill="none" stroke="#9093aa" stroke-width="1.3"/>
      <polyline points="5,8 7.5,10.5 11,6" fill="none" stroke="#9093aa" stroke-width="1.2" stroke-linecap="round" stroke-linejoin="round"/>
    </g>
    <text x="36" y="21" font-family="Inter, 'Segoe UI', Arial, sans-serif" font-size="13" fill="#9093aa">Analysis History</text>
  </g>

  <!-- ===== Log Analysis Group ===== -->
  <text x="20" y="240" font-family="Inter, 'Segoe UI', Arial, sans-serif" font-size="10" fill="rgba(144,147,170,0.7)" letter-spacing="1.5" font-weight="500">LOG ANALYSIS</text>

  <!-- Nav: Upload Logs -->
  <g transform="translate(8, 250)">
    <rect width="240" height="32" rx="6" fill="transparent"/>
    <g transform="translate(12, 8)">
      <path d="M8 12 L8 4 M4 7 L8 3 L12 7" fill="none" stroke="#9093aa" stroke-width="1.3" stroke-linecap="round" stroke-linejoin="round"/>
      <line x1="3" y1="14" x2="13" y2="14" stroke="#9093aa" stroke-width="1"/>
    </g>
    <text x="36" y="21" font-family="Inter, 'Segoe UI', Arial, sans-serif" font-size="13" fill="#9093aa">Upload Logs</text>
  </g>

  <!-- Nav: Log Explorer -->
  <g transform="translate(8, 290)">
    <rect width="240" height="32" rx="6" fill="transparent"/>
    <g transform="translate(12, 8)">
      <rect width="16" height="16" rx="2" fill="none" stroke="#9093aa" stroke-width="1.3"/>
      <line x1="4" y1="6" x2="12" y2="6" stroke="#9093aa" stroke-width="1"/>
      <line x1="4" y1="9" x2="10" y2="9" stroke="#9093aa" stroke-width="1"/>
      <line x1="4" y1="12" x2="12" y2="12" stroke="#9093aa" stroke-width="1"/>
    </g>
    <text x="36" y="21" font-family="Inter, 'Segoe UI', Arial, sans-serif" font-size="13" fill="#9093aa">Log Explorer</text>
  </g>

  <!-- Nav: Threat Detection -->
  <g transform="translate(8, 330)">
    <rect width="240" height="32" rx="6" fill="transparent"/>
    <g transform="translate(12, 8)">
      <path d="M8 2 L14 6 L14 12 C14 14 11 16 8 17 C5 16 2 14 2 12 L2 6 Z" fill="none" stroke="#9093aa" stroke-width="1.3"/>
      <line x1="6" y1="9" x2="8" y2="11" stroke="#9093aa" stroke-width="1" stroke-linecap="round"/>
      <line x1="8" y1="11" x2="11" y2="7" stroke="#9093aa" stroke-width="1" stroke-linecap="round"/>
    </g>
    <text x="36" y="21" font-family="Inter, 'Segoe UI', Arial, sans-serif" font-size="13" fill="#9093aa">Threat Detection</text>
  </g>

  <!-- ===== Intelligence Group ===== -->
  <text x="20" y="390" font-family="Inter, 'Segoe UI', Arial, sans-serif" font-size="10" fill="rgba(144,147,170,0.7)" letter-spacing="1.5" font-weight="500">INTELLIGENCE</text>

  <!-- Nav: Alerts -->
  <g transform="translate(8, 400)">
    <rect width="240" height="32" rx="6" fill="transparent"/>
    <g transform="translate(12, 8)">
      <path d="M8 2 C5 2 3 4.5 3 7 L3 11 L1 13 L15 13 L13 11 L13 7 C13 4.5 11 2 8 2Z" fill="none" stroke="#9093aa" stroke-width="1.3"/>
      <path d="M6 13 C6 14.5 6.8 15 8 15 C9.2 15 10 14.5 10 13" fill="none" stroke="#9093aa" stroke-width="1"/>
    </g>
    <text x="36" y="21" font-family="Inter, 'Segoe UI', Arial, sans-serif" font-size="13" fill="#9093aa">Alerts</text>
  </g>

  <!-- Nav: Reports -->
  <g transform="translate(8, 440)">
    <rect width="240" height="32" rx="6" fill="transparent"/>
    <g transform="translate(12, 8)">
      <rect x="1" y="2" width="14" height="12" rx="1" fill="none" stroke="#9093aa" stroke-width="1.3"/>
      <line x1="4" y1="5" x2="12" y2="5" stroke="#9093aa" stroke-width="1"/>
      <line x1="4" y1="8" x2="10" y2="8" stroke="#9093aa" stroke-width="1"/>
      <line x1="4" y1="11" x2="12" y2="11" stroke="#9093aa" stroke-width="1"/>
    </g>
    <text x="36" y="21" font-family="Inter, 'Segoe UI', Arial, sans-serif" font-size="13" fill="#9093aa">Reports</text>
  </g>

  <!-- ===== System Group ===== -->
  <text x="20" y="500" font-family="Inter, 'Segoe UI', Arial, sans-serif" font-size="10" fill="rgba(144,147,170,0.7)" letter-spacing="1.5" font-weight="500">SYSTEM</text>

  <!-- Nav: Settings -->
  <g transform="translate(8, 510)">
    <rect width="240" height="32" rx="6" fill="transparent"/>
    <g transform="translate(12, 8)">
      <circle cx="8" cy="8" r="3" fill="none" stroke="#9093aa" stroke-width="1.3"/>
      <circle cx="8" cy="8" r="6" fill="none" stroke="#9093aa" stroke-width="1" stroke-dasharray="2 2"/>
    </g>
    <text x="36" y="21" font-family="Inter, 'Segoe UI', Arial, sans-serif" font-size="13" fill="#9093aa">Settings</text>
  </g>

  <!-- Sidebar Footer -->
  <line x1="0" y1="840" x2="256" y2="840" stroke="rgba(59,158,255,0.15)" stroke-width="0.5"/>
  <g transform="translate(12, 850)">
    <circle cx="16" cy="16" r="16" fill="rgba(34,197,94,0.2)"/>
    <text x="16" y="21" font-family="Inter, 'Segoe UI', Arial, sans-serif" font-size="11" font-weight="600" fill="#22c55e" text-anchor="middle">V</text>
    <text x="42" y="14" font-family="Inter, 'Segoe UI', Arial, sans-serif" font-size="12" font-weight="500" fill="#e8eaf0">Vishnu Sree</text>
    <text x="42" y="28" font-family="Inter, 'Segoe UI', Arial, sans-serif" font-size="10" fill="#72748a">admin</text>
  </g>

  <!-- ========== HEADER (56px, starts at x=256) ========== -->
  <rect x="256" y="0" width="1144" height="56" fill="rgba(15,23,41,0.6)"/>
  <line x1="256" y1="56" x2="1400" y2="56" stroke="rgba(59,158,255,0.18)" stroke-width="0.5"/>

  <!-- Hamburger menu -->
  <g transform="translate(272, 14)">
    <line x1="0" y1="4" x2="28" y2="4" stroke="#72748a" stroke-width="1.5" stroke-linecap="round"/>
    <line x1="0" y1="10" x2="28" y2="10" stroke="#72748a" stroke-width="1.5" stroke-linecap="round"/>
    <line x1="0" y1="16" x2="28" y2="16" stroke="#72748a" stroke-width="1.5" stroke-linecap="round"/>
  </g>

  <!-- Search bar -->
  <g transform="translate(316, 12)">
    <rect width="320" height="32" rx="6" fill="rgba(34,38,74,0.4)" stroke="rgba(59,158,255,0.18)" stroke-width="0.5"/>
    <circle cx="14" cy="16" r="5" fill="none" stroke="#72748a" stroke-width="1.3"/>
    <line x1="18" y1="20" x2="22" y2="24" stroke="#72748a" stroke-width="1.3" stroke-linecap="round"/>
    <text x="32" y="21" font-family="Inter, 'Segoe UI', Arial, sans-serif" font-size="13" fill="#72748a">Search logs, IPs, threats...</text>
  </g>

  <!-- SOC Status -->
  <g transform="translate(900, 18)">
    <circle cx="8" cy="10" r="4" fill="#22c55e">
      <animate attributeName="opacity" values="1;0.4;1" dur="1.5s" repeatCount="indefinite"/>
    </circle>
    <circle cx="8" cy="10" r="4" fill="#22c55e" opacity="0.4">
      <animate attributeName="r" values="4;8;4" dur="1.5s" repeatCount="indefinite"/>
      <animate attributeName="opacity" values="0.6;0;0.6" dur="1.5s" repeatCount="indefinite"/>
    </circle>
    <text x="18" y="14" font-family="Inter, 'Segoe UI', Arial, sans-serif" font-size="12" fill="#72748a">SOC Live</text>
  </g>

  <!-- Notification bell -->
  <g transform="translate(1020, 12)">
    <rect width="28" height="28" rx="6" fill="transparent"/>
    <path d="M14 4 C10 4 7 7 7 10 L7 16 L4 19 L24 19 L21 16 L21 10 C21 7 18 4 14 4Z" fill="none" stroke="#72748a" stroke-width="1.3"/>
    <circle cx="20" cy="6" r="4" fill="#ef4444"/>
  </g>

  <!-- User avatar in header -->
  <g transform="translate(1080, 12)">
    <circle cx="14" cy="14" r="14" fill="rgba(34,197,94,0.2)" stroke="rgba(34,197,94,0.3)" stroke-width="0.5"/>
    <text x="14" y="18" font-family="Inter, 'Segoe UI', Arial, sans-serif" font-size="10" font-weight="600" fill="#22c55e" text-anchor="middle">V</text>
  </g>

  <!-- ========== MAIN CONTENT ========== -->
  <!-- Page Title -->
  <text x="280" y="96" font-family="Inter, 'Segoe UI', Arial, sans-serif" font-size="24" font-weight="700" fill="#e8eaf0" letter-spacing="-0.025">SOC Dashboard</text>
  <text x="280" y="116" font-family="Inter, 'Segoe UI', Arial, sans-serif" font-size="13" fill="#72748a">Multi-source cyber threat intelligence and analysis platform.</text>

  <!-- ========== STAT CARDS (4 columns) ========== -->
  <!-- Row 1 -->
  <!-- Card 1: Total Analyses -->
  <g transform="translate(280, 136)">
    <rect width="252" height="76" rx="8" fill="url(#glassGrad)" stroke="rgba(59,158,255,0.18)" stroke-width="0.5"/>
    <text x="16" y="22" font-family="Inter, 'Segoe UI', Arial, sans-serif" font-size="11" fill="#72748a" letter-spacing="0.1" font-weight="500">TOTAL ANALYSES</text>
    <text x="16" y="50" font-family="Inter, 'Segoe UI', Arial, sans-serif" font-size="24" font-weight="700" fill="#3b9eff">1,247</text>
    <rect x="200" y="16" width="36" height="36" rx="8" fill="rgba(59,158,255,0.15)"/>
    <circle cx="218" cy="34" r="8" fill="none" stroke="#3b9eff" stroke-width="1.5"/>
    <line x1="218" y1="26" x2="218" y2="42" stroke="#3b9eff" stroke-width="1"/>
    <line x1="210" y1="34" x2="226" y2="34" stroke="#3b9eff" stroke-width="1"/>
  </g>

  <!-- Card 2: Critical Threats -->
  <g transform="translate(544, 136)">
    <rect width="252" height="76" rx="8" fill="url(#glassGrad)" stroke="rgba(59,158,255,0.18)" stroke-width="0.5"/>
    <text x="16" y="22" font-family="Inter, 'Segoe UI', Arial, sans-serif" font-size="11" fill="#72748a" letter-spacing="0.1" font-weight="500">CRITICAL THREATS</text>
    <text x="16" y="50" font-family="Inter, 'Segoe UI', Arial, sans-serif" font-size="24" font-weight="700" fill="#ef4444">47</text>
    <rect x="200" y="16" width="36" height="36" rx="8" fill="rgba(239,68,68,0.15)"/>
    <path d="M218 22 C218 22 212 28 212 33 C212 37 215 40 218 40 C221 40 224 37 224 33 C224 28 218 22 218 22Z" fill="none" stroke="#ef4444" stroke-width="1.3"/>
    <path d="M218 30 C218 30 215 33 215 35 C215 37 216 38 218 38 C220 38 221 37 221 35 C221 33 218 30 218 30Z" fill="#ef4444" opacity="0.3"/>
  </g>

  <!-- Card 3: Total Alerts -->
  <g transform="translate(808, 136)">
    <rect width="252" height="76" rx="8" fill="url(#glassGrad)" stroke="rgba(59,158,255,0.18)" stroke-width="0.5"/>
    <text x="16" y="22" font-family="Inter, 'Segoe UI', Arial, sans-serif" font-size="11" fill="#72748a" letter-spacing="0.1" font-weight="500">TOTAL ALERTS</text>
    <text x="16" y="50" font-family="Inter, 'Segoe UI', Arial, sans-serif" font-size="24" font-weight="700" fill="#f59e0b">342</text>
    <rect x="200" y="16" width="36" height="36" rx="8" fill="rgba(245,158,11,0.15)"/>
    <path d="M218 26 L226 38 L210 38 Z" fill="none" stroke="#f59e0b" stroke-width="1.5" stroke-linejoin="round"/>
    <line x1="218" y1="30" x2="218" y2="34" stroke="#f59e0b" stroke-width="1.5" stroke-linecap="round"/>
    <circle cx="218" cy="36" r="0.8" fill="#f59e0b"/>
  </g>

  <!-- Card 4: Logs Processed -->
  <g transform="translate(1072, 136)">
    <rect width="252" height="76" rx="8" fill="url(#glassGrad)" stroke="rgba(59,158,255,0.18)" stroke-width="0.5"/>
    <text x="16" y="22" font-family="Inter, 'Segoe UI', Arial, sans-serif" font-size="11" fill="#72748a" letter-spacing="0.1" font-weight="500">LOGS PROCESSED</text>
    <text x="16" y="50" font-family="Inter, 'Segoe UI', Arial, sans-serif" font-size="24" font-weight="700" fill="#22c55e">12,847</text>
    <rect x="200" y="16" width="36" height="36" rx="8" fill="rgba(34,197,94,0.15)"/>
    <polyline points="206,36 212,28 218,33 224,24 230,30" fill="none" stroke="#22c55e" stroke-width="1.5" stroke-linecap="round" stroke-linejoin="round"/>
  </g>

  <!-- Row 2: Analysis Type Counts -->
  <!-- Card 5: URL Analysis -->
  <g transform="translate(280, 224)">
    <rect width="252" height="76" rx="8" fill="url(#glassGrad)" stroke="rgba(59,158,255,0.18)" stroke-width="0.5"/>
    <text x="16" y="22" font-family="Inter, 'Segoe UI', Arial, sans-serif" font-size="11" fill="#72748a" letter-spacing="0.1" font-weight="500">URL ANALYSIS</text>
    <text x="16" y="50" font-family="Inter, 'Segoe UI', Arial, sans-serif" font-size="24" font-weight="700" fill="#3b9eff">312</text>
    <rect x="200" y="16" width="36" height="36" rx="8" fill="rgba(59,158,255,0.15)"/>
    <circle cx="218" cy="31" r="7" fill="none" stroke="#3b9eff" stroke-width="1.3"/>
    <line x1="218" y1="38" x2="218" y2="44" stroke="#3b9eff" stroke-width="1.3"/>
  </g>

  <!-- Card 6: Text Analysis -->
  <g transform="translate(544, 224)">
    <rect width="252" height="76" rx="8" fill="url(#glassGrad)" stroke="rgba(59,158,255,0.18)" stroke-width="0.5"/>
    <text x="16" y="22" font-family="Inter, 'Segoe UI', Arial, sans-serif" font-size="11" fill="#72748a" letter-spacing="0.1" font-weight="500">TEXT ANALYSIS</text>
    <text x="16" y="50" font-family="Inter, 'Segoe UI', Arial, sans-serif" font-size="24" font-weight="700" fill="#f59e0b">189</text>
    <rect x="200" y="16" width="36" height="36" rx="8" fill="rgba(245,158,11,0.15)"/>
    <rect x="208" y="22" width="20" height="24" rx="2" fill="none" stroke="#f59e0b" stroke-width="1.3"/>
    <line x1="212" y1="28" x2="224" y2="28" stroke="#f59e0b" stroke-width="1"/>
    <line x1="212" y1="32" x2="220" y2="32" stroke="#f59e0b" stroke-width="1"/>
    <line x1="212" y1="36" x2="222" y2="36" stroke="#f59e0b" stroke-width="1"/>
  </g>

  <!-- Card 7: PDF Analysis -->
  <g transform="translate(808, 224)">
    <rect width="252" height="76" rx="8" fill="url(#glassGrad)" stroke="rgba(59,158,255,0.18)" stroke-width="0.5"/>
    <text x="16" y="22" font-family="Inter, 'Segoe UI', Arial, sans-serif" font-size="11" fill="#72748a" letter-spacing="0.1" font-weight="500">PDF ANALYSIS</text>
    <text x="16" y="50" font-family="Inter, 'Segoe UI', Arial, sans-serif" font-size="24" font-weight="700" fill="#ef4444">87</text>
    <rect x="200" y="16" width="36" height="36" rx="8" fill="rgba(239,68,68,0.15)"/>
    <rect x="208" y="20" width="20" height="28" rx="2" fill="none" stroke="#ef4444" stroke-width="1.3"/>
    <text x="218" y="38" font-family="Inter, 'Segoe UI', Arial, sans-serif" font-size="8" fill="#ef4444" text-anchor="middle" font-weight="600">PDF</text>
  </g>

  <!-- Card 8: IP Analysis -->
  <g transform="translate(1072, 224)">
    <rect width="252" height="76" rx="8" fill="url(#glassGrad)" stroke="rgba(59,158,255,0.18)" stroke-width="0.5"/>
    <text x="16" y="22" font-family="Inter, 'Segoe UI', Arial, sans-serif" font-size="11" fill="#72748a" letter-spacing="0.1" font-weight="500">IP ANALYSIS</text>
    <text x="16" y="50" font-family="Inter, 'Segoe UI', Arial, sans-serif" font-size="24" font-weight="700" fill="#22c55e">423</text>
    <rect x="200" y="16" width="36" height="36" rx="8" fill="rgba(34,197,94,0.15)"/>
    <circle cx="218" cy="32" r="8" fill="none" stroke="#22c55e" stroke-width="1.3"/>
    <ellipse cx="218" cy="32" rx="4" ry="8" fill="none" stroke="#22c55e" stroke-width="1"/>
    <line x1="210" y1="32" x2="226" y2="32" stroke="#22c55e" stroke-width="1"/>
  </g>

  <!-- ========== CHARTS GRID (2 columns) ========== -->
  <!-- Chart 1: Analysis Timeline -->
  <g transform="translate(280, 320)">
    <rect width="536" height="290" rx="8" fill="url(#glassGrad)" stroke="rgba(59,158,255,0.18)" stroke-width="0.5"/>
    <text x="16" y="24" font-family="Inter, 'Segoe UI', Arial, sans-serif" font-size="14" font-weight="600" fill="#e8eaf0">Analysis Activity</text>
    <text x="16" y="40" font-family="Inter, 'Segoe UI', Arial, sans-serif" font-size="12" fill="#72748a">Analyses performed per hour (last 24h)</text>

    <!-- Y-axis -->
    <line x1="48" y1="60" x2="48" y2="250" stroke="rgba(255,255,255,0.04)" stroke-width="0.5"/>
    <!-- Grid lines -->
    <line x1="48" y1="80" x2="520" y2="80" stroke="rgba(255,255,255,0.04)" stroke-width="0.5"/>
    <line x1="48" y1="120" x2="520" y2="120" stroke="rgba(255,255,255,0.04)" stroke-width="0.5"/>
    <line x1="48" y1="160" x2="520" y2="160" stroke="rgba(255,255,255,0.04)" stroke-width="0.5"/>
    <line x1="48" y1="200" x2="520" y2="200" stroke="rgba(255,255,255,0.04)" stroke-width="0.5"/>
    <line x1="48" y1="240" x2="520" y2="240" stroke="rgba(255,255,255,0.04)" stroke-width="0.5"/>

    <!-- Y labels -->
    <text x="42" y="84" font-family="Inter, 'Segoe UI', Arial, sans-serif" font-size="9" fill="#72748a" text-anchor="end">80</text>
    <text x="42" y="124" font-family="Inter, 'Segoe UI', Arial, sans-serif" font-size="9" fill="#72748a" text-anchor="end">60</text>
    <text x="42" y="164" font-family="Inter, 'Segoe UI', Arial, sans-serif" font-size="9" fill="#72748a" text-anchor="end">40</text>
    <text x="42" y="204" font-family="Inter, 'Segoe UI', Arial, sans-serif" font-size="9" fill="#72748a" text-anchor="end">20</text>
    <text x="42" y="244" font-family="Inter, 'Segoe UI', Arial, sans-serif" font-size="9" fill="#72748a" text-anchor="end">0</text>

    <!-- Line chart -->
    <polyline points="58,220 88,205 118,210 148,185 178,190 208,160 238,168 268,130 298,142 328,115 358,125 388,100 418,108 448,90 478,95 508,82"
              fill="none" stroke="#3b9eff" stroke-width="2" stroke-linecap="round" stroke-linejoin="round" opacity="0.9"/>
    <polygon points="58,220 88,205 118,210 148,185 178,190 208,160 238,168 268,130 298,142 328,115 358,125 388,100 418,108 448,90 478,95 508,82 508,250 58,250"
             fill="url(#greenFill)" opacity="0.6"/>
    <circle cx="58" cy="220" r="3" fill="#3b9eff"/>
    <circle cx="148" cy="185" r="3" fill="#3b9eff"/>
    <circle cx="268" cy="130" r="3" fill="#3b9eff"/>
    <circle cx="388" cy="100" r="3" fill="#3b9eff"/>
    <circle cx="508" cy="82" r="3" fill="#3b9eff"/>

    <!-- X-axis labels -->
    <text x="58" y="268" font-family="Inter, 'Segoe UI', Arial, sans-serif" font-size="9" fill="#72748a" text-anchor="middle">00:00</text>
    <text x="148" y="268" font-family="Inter, 'Segoe UI', Arial, sans-serif" font-size="9" fill="#72748a" text-anchor="middle">06:00</text>
    <text x="268" y="268" font-family="Inter, 'Segoe UI', Arial, sans-serif" font-size="9" fill="#72748a" text-anchor="middle">12:00</text>
    <text x="388" y="268" font-family="Inter, 'Segoe UI', Arial, sans-serif" font-size="9" fill="#72748a" text-anchor="middle">18:00</text>
    <text x="508" y="268" font-family="Inter, 'Segoe UI', Arial, sans-serif" font-size="9" fill="#72748a" text-anchor="middle">Now</text>
  </g>

  <!-- Chart 2: Analysis Distribution (doughnut) -->
  <g transform="translate(832, 320)">
    <rect width="536" height="290" rx="8" fill="url(#glassGrad)" stroke="rgba(59,158,255,0.18)" stroke-width="0.5"/>
    <text x="16" y="24" font-family="Inter, 'Segoe UI', Arial, sans-serif" font-size="14" font-weight="600" fill="#e8eaf0">Analysis Distribution</text>

    <!-- Doughnut chart -->
    <g transform="translate(180, 160)">
      <circle cx="0" cy="0" r="75" fill="none" stroke="rgba(255,255,255,0.05)" stroke-width="26"/>
      <!-- IP Analysis - 34% -->
      <circle cx="0" cy="0" r="75" fill="none" stroke="#22c55e" stroke-width="26"
              stroke-dasharray="161 309" stroke-dashoffset="0" transform="rotate(-90)" opacity="0.7"/>
      <!-- URL Analysis - 25% -->
      <circle cx="0" cy="0" r="75" fill="none" stroke="#3b9eff" stroke-width="26"
              stroke-dasharray="118 352" stroke-dashoffset="-161" transform="rotate(-90)" opacity="0.7"/>
      <!-- Text Analysis - 15% -->
      <circle cx="0" cy="0" r="75" fill="none" stroke="#f59e0b" stroke-width="26"
              stroke-dasharray="71 399" stroke-dashoffset="-279" transform="rotate(-90)" opacity="0.7"/>
      <!-- PDF Analysis - 7% -->
      <circle cx="0" cy="0" r="75" fill="none" stroke="#ef4444" stroke-width="26"
              stroke-dasharray="33 437" stroke-dashoffset="-350" transform="rotate(-90)" opacity="0.7"/>
      <!-- Hash Analysis - 19% -->
      <circle cx="0" cy="0" r="75" fill="none" stroke="#aa00ff" stroke-width="26"
              stroke-dasharray="90 380" stroke-dashoffset="-383" transform="rotate(-90)" opacity="0.7"/>
      <!-- Center text -->
      <text x="0" y="-5" font-family="Inter, 'Segoe UI', Arial, sans-serif" font-size="24" font-weight="700" fill="#e8eaf0" text-anchor="middle">1,247</text>
      <text x="0" y="14" font-family="Inter, 'Segoe UI', Arial, sans-serif" font-size="10" fill="#72748a" text-anchor="middle">total analyses</text>
    </g>

    <!-- Legend -->
    <g transform="translate(400, 80)">
      <rect x="0" y="0" width="10" height="10" rx="5" fill="#22c55e"/>
      <text x="16" y="9" font-family="Inter, 'Segoe UI', Arial, sans-serif" font-size="11" fill="#e8eaf0">IP Analysis</text>
      <text x="110" y="9" font-family="Inter, 'Segoe UI', Arial, sans-serif" font-size="11" fill="#72748a">34%</text>

      <rect x="0" y="24" width="10" height="10" rx="5" fill="#3b9eff"/>
      <text x="16" y="33" font-family="Inter, 'Segoe UI', Arial, sans-serif" font-size="11" fill="#e8eaf0">URL Analysis</text>
      <text x="110" y="33" font-family="Inter, 'Segoe UI', Arial, sans-serif" font-size="11" fill="#72748a">25%</text>

      <rect x="0" y="48" width="10" height="10" rx="5" fill="#f59e0b"/>
      <text x="16" y="57" font-family="Inter, 'Segoe UI', Arial, sans-serif" font-size="11" fill="#e8eaf0">Text Analysis</text>
      <text x="110" y="57" font-family="Inter, 'Segoe UI', Arial, sans-serif" font-size="11" fill="#72748a">15%</text>

      <rect x="0" y="72" width="10" height="10" rx="5" fill="#aa00ff"/>
      <text x="16" y="81" font-family="Inter, 'Segoe UI', Arial, sans-serif" font-size="11" fill="#e8eaf0">Hash Analysis</text>
      <text x="110" y="81" font-family="Inter, 'Segoe UI', Arial, sans-serif" font-size="11" fill="#72748a">19%</text>

      <rect x="0" y="96" width="10" height="10" rx="5" fill="#ef4444"/>
      <text x="16" y="105" font-family="Inter, 'Segoe UI', Arial, sans-serif" font-size="11" fill="#e8eaf0">PDF Analysis</text>
      <text x="110" y="105" font-family="Inter, 'Segoe UI', Arial, sans-serif" font-size="11" fill="#72748a">7%</text>
    </g>
  </g>

  <!-- ========== BOTTOM ROW: Analysis Modules + Severity ========== -->
  <!-- Chart 3: Analysis Modules (cards grid) -->
  <g transform="translate(280, 626)">
    <rect width="536" height="250" rx="8" fill="url(#glassGrad)" stroke="rgba(59,158,255,0.18)" stroke-width="0.5"/>
    <text x="16" y="24" font-family="Inter, 'Segoe UI', Arial, sans-serif" font-size="14" font-weight="600" fill="#e8eaf0">Analysis Modules</text>
    <text x="16" y="40" font-family="Inter, 'Segoe UI', Arial, sans-serif" font-size="12" fill="#72748a">Available intelligence sources</text>

    <!-- Module cards - 5 modules in a row -->
    <g transform="translate(16, 56)">
      <!-- URL Module -->
      <g transform="translate(0, 0)">
        <rect width="96" height="80" rx="8" fill="rgba(59,158,255,0.08)" stroke="rgba(59,158,255,0.2)" stroke-width="0.5"/>
        <circle cx="48" cy="30" r="14" fill="rgba(59,158,255,0.15)"/>
        <circle cx="48" cy="30" r="6" fill="none" stroke="#3b9eff" stroke-width="1.2"/>
        <line x1="48" y1="36" x2="48" y2="44" stroke="#3b9eff" stroke-width="1.2"/>
        <text x="48" y="64" font-family="Inter, 'Segoe UI', Arial, sans-serif" font-size="10" fill="#e8eaf0" text-anchor="middle">URL</text>
      </g>
      <!-- Text Module -->
      <g transform="translate(106, 0)">
        <rect width="96" height="80" rx="8" fill="rgba(245,158,11,0.08)" stroke="rgba(245,158,11,0.2)" stroke-width="0.5"/>
        <circle cx="48" cy="30" r="14" fill="rgba(245,158,11,0.15)"/>
        <rect x="40" y="22" width="16" height="20" rx="2" fill="none" stroke="#f59e0b" stroke-width="1.2"/>
        <line x1="43" y1="28" x2="53" y2="28" stroke="#f59e0b" stroke-width="0.8"/>
        <line x1="43" y1="32" x2="50" y2="32" stroke="#f59e0b" stroke-width="0.8"/>
        <text x="48" y="64" font-family="Inter, 'Segoe UI', Arial, sans-serif" font-size="10" fill="#e8eaf0" text-anchor="middle">Text</text>
      </g>
      <!-- PDF Module -->
      <g transform="translate(212, 0)">
        <rect width="96" height="80" rx="8" fill="rgba(239,68,68,0.08)" stroke="rgba(239,68,68,0.2)" stroke-width="0.5"/>
        <circle cx="48" cy="30" r="14" fill="rgba(239,68,68,0.15)"/>
        <rect x="40" y="20" width="16" height="22" rx="2" fill="none" stroke="#ef4444" stroke-width="1.2"/>
        <text x="48" y="36" font-family="Inter, 'Segoe UI', Arial, sans-serif" font-size="7" fill="#ef4444" text-anchor="middle" font-weight="600">PDF</text>
        <text x="48" y="64" font-family="Inter, 'Segoe UI', Arial, sans-serif" font-size="10" fill="#e8eaf0" text-anchor="middle">PDF</text>
      </g>
      <!-- IP Module -->
      <g transform="translate(318, 0)">
        <rect width="96" height="80" rx="8" fill="rgba(34,197,94,0.08)" stroke="rgba(34,197,94,0.2)" stroke-width="0.5"/>
        <circle cx="48" cy="30" r="14" fill="rgba(34,197,94,0.15)"/>
        <circle cx="48" cy="30" r="8" fill="none" stroke="#22c55e" stroke-width="1.2"/>
        <ellipse cx="48" cy="30" rx="4" ry="8" fill="none" stroke="#22c55e" stroke-width="0.8"/>
        <text x="48" y="64" font-family="Inter, 'Segoe UI', Arial, sans-serif" font-size="10" fill="#e8eaf0" text-anchor="middle">IP</text>
      </g>
      <!-- Hash Module -->
      <g transform="translate(424, 0)">
        <rect width="96" height="80" rx="8" fill="rgba(170,0,255,0.08)" stroke="rgba(170,0,255,0.2)" stroke-width="0.5"/>
        <circle cx="48" cy="30" r="14" fill="rgba(170,0,255,0.15)"/>
        <text x="48" y="35" font-family="Inter, 'Segoe UI', Arial, sans-serif" font-size="14" fill="#aa00ff" text-anchor="middle" font-weight="700">#</text>
        <text x="48" y="64" font-family="Inter, 'Segoe UI', Arial, sans-serif" font-size="10" fill="#e8eaf0" text-anchor="middle">Hash</text>
      </g>
    </g>

    <!-- 7 Log Rules below -->
    <g transform="translate(16, 150)">
      <text x="0" y="12" font-family="Inter, 'Segoe UI', Arial, sans-serif" font-size="11" fill="#72748a" font-weight="500">Log Detection Rules (7)</text>
      <g transform="translate(0, 20)" font-family="Inter, 'Segoe UI', Arial, sans-serif" font-size="10">
        <circle cx="5" cy="5" r="3" fill="#ef4444"/><text x="14" y="9" fill="#e8eaf0">Failed Login</text>
        <circle cx="125" cy="5" r="3" fill="#f59e0b"/><text x="134" y="9" fill="#e8eaf0">Brute Force</text>
        <circle cx="245" cy="5" r="3" fill="#aa00ff"/><text x="254" y="9" fill="#e8eaf0">SQL Injection</text>
        <circle cx="365" cy="5" r="3" fill="#ef4444"/><text x="374" y="9" fill="#e8eaf0">XSS Attack</text>

        <circle cx="5" cy="25" r="3" fill="#f59e0b"/><text x="14" y="29" fill="#e8eaf0">Dir. Traversal</text>
        <circle cx="125" cy="25" r="3" fill="#3b9eff"/><text x="134" y="29" fill="#e8eaf0">Port Scanning</text>
        <circle cx="245" cy="25" r="3" fill="#ef4444"/><text x="254" y="29" fill="#e8eaf0">DoS Attack</text>
      </g>
    </g>
  </g>

  <!-- Chart 4: Severity Distribution -->
  <g transform="translate(832, 626)">
    <rect width="536" height="250" rx="8" fill="url(#glassGrad)" stroke="rgba(59,158,255,0.18)" stroke-width="0.5"/>
    <text x="16" y="24" font-family="Inter, 'Segoe UI', Arial, sans-serif" font-size="14" font-weight="600" fill="#e8eaf0">Severity Distribution</text>

    <!-- Y axis -->
    <line x1="60" y1="50" x2="60" y2="220" stroke="rgba(255,255,255,0.04)" stroke-width="0.5"/>
    <line x1="60" y1="220" x2="510" y2="220" stroke="rgba(255,255,255,0.04)" stroke-width="0.5"/>

    <!-- Bars -->
    <g transform="translate(80, 50)">
      <!-- Critical -->
      <rect x="0" y="130" width="80" height="40" rx="4" fill="rgba(239,68,68,0.6)" stroke="#ef4444" stroke-width="1"/>
      <text x="40" y="155" font-family="Inter, 'Segoe UI', Arial, sans-serif" font-size="13" font-weight="600" fill="white" text-anchor="middle">47</text>
      <text x="40" y="185" font-family="Inter, 'Segoe UI', Arial, sans-serif" font-size="10" fill="#72748a" text-anchor="middle">Critical</text>

      <!-- High -->
      <rect x="110" y="90" width="80" height="80" rx="4" fill="rgba(245,158,11,0.6)" stroke="#f59e0b" stroke-width="1"/>
      <text x="150" y="135" font-family="Inter, 'Segoe UI', Arial, sans-serif" font-size="13" font-weight="600" fill="white" text-anchor="middle">89</text>
      <text x="150" y="185" font-family="Inter, 'Segoe UI', Arial, sans-serif" font-size="10" fill="#72748a" text-anchor="middle">High</text>

      <!-- Medium -->
      <rect x="220" y="50" width="80" height="120" rx="4" fill="rgba(245,158,11,0.4)" stroke="#f59e0b" stroke-width="1" opacity="0.7"/>
      <text x="260" y="115" font-family="Inter, 'Segoe UI', Arial, sans-serif" font-size="13" font-weight="600" fill="white" text-anchor="middle">134</text>
      <text x="260" y="185" font-family="Inter, 'Segoe UI', Arial, sans-serif" font-size="10" fill="#72748a" text-anchor="middle">Medium</text>

      <!-- Low -->
      <rect x="330" y="110" width="80" height="60" rx="4" fill="rgba(59,158,255,0.4)" stroke="#3b9eff" stroke-width="1"/>
      <text x="370" y="145" font-family="Inter, 'Segoe UI', Arial, sans-serif" font-size="13" font-weight="600" fill="white" text-anchor="middle">72</text>
      <text x="370" y="185" font-family="Inter, 'Segoe UI', Arial, sans-serif" font-size="10" fill="#72748a" text-anchor="middle">Low</text>
    </g>
  </g>
</svg>