<svg xmlns="http://www.w3.org/2000/svg" viewBox="0 0 1200 400">
  <defs>
    <linearGradient id="outBg" x1="0%" y1="0%" x2="100%" y2="100%">
      <stop offset="0%" style="stop-color:#0a0e27"/>
      <stop offset="100%" style="stop-color:#0d1117"/>
    </linearGradient>
    <linearGradient id="redLine" x1="0%" y1="0%" x2="100%" y2="0%">
      <stop offset="0%" style="stop-color:#ff4444;stop-opacity:0.6"/>
      <stop offset="100%" style="stop-color:#ff4444;stop-opacity:0"/>
    </linearGradient>
    <filter id="termGlow">
      <feGaussianBlur stdDeviation="1" result="coloredBlur"/>
      <feMerge><feMergeNode in="coloredBlur"/><feMergeNode in="SourceGraphic"/></feMerge>
    </filter>
  </defs>
  <rect width="1200" height="400" fill="url(#outBg)"/>

  <!-- Left: Input Log -->
  <g transform="translate(40, 30)">
    <rect width="540" height="340" rx="12" fill="rgba(255,255,255,0.03)" stroke="rgba(255,255,255,0.08)" stroke-width="0.5"/>
    <rect x="0" y="0" width="540" height="40" rx="12" fill="rgba(255,255,255,0.04)"/>
    <rect x="0" y="30" width="540" height="10" fill="rgba(255,255,255,0.04)"/>
    <circle cx="20" cy="20" r="5" fill="#ff5f56"/>
    <circle cx="38" cy="20" r="5" fill="#ffbd2e"/>
    <circle cx="56" cy="20" r="5" fill="#27c93f"/>
    <text x="270" y="25" font-family="'Segoe UI', Arial, sans-serif" font-size="12" font-weight="600" fill="#8892b0" text-anchor="middle">Sample Input Log</text>

    <!-- Log lines -->
    <g transform="translate(15, 60)" font-family="'JetBrains Mono', Consolas, monospace" font-size="11">
      <text fill="#8892b0" opacity="0.5">1</text>
      <text x="30" fill="#8892b0">192.168.1.15</text>
      <text x="160" fill="#546e7a">- -</text>
      <text x="200" fill="#00aaff">[08/Jul/2026:10:20:10]</text>
      <text x="400" fill="#ffaa00">"POST /login HTTP/1.1"</text>
      <text x="510" fill="#ff4444">401</text>

      <text y="22" fill="#8892b0" opacity="0.5">2</text>
      <text x="30" y="22" fill="#8892b0">192.168.1.15</text>
      <text x="160" y="22" fill="#546e7a">- -</text>
      <text x="200" y="22" fill="#00aaff">[08/Jul/2026:10:20:14]</text>
      <text x="400" y="22" fill="#ffaa00">"POST /login HTTP/1.1"</text>
      <text x="510" y="22" fill="#ff4444">401</text>

      <text y="44" fill="#8892b0" opacity="0.5">3</text>
      <text x="30" y="44" fill="#8892b0">192.168.1.15</text>
      <text x="160" y="44" fill="#546e7a">- -</text>
      <text x="200" y="44" fill="#00aaff">[08/Jul/2026:10:20:18]</text>
      <text x="400" y="44" fill="#ffaa00">"POST /login HTTP/1.1"</text>
      <text x="510" y="44" fill="#ff4444">401</text>

      <text y="66" fill="#8892b0" opacity="0.5">4</text>
      <text x="30" y="66" fill="#8892b0">192.168.1.15</text>
      <text x="160" y="66" fill="#546e7a">- -</text>
      <text x="200" y="66" fill="#00aaff">[08/Jul/2026:10:20:22]</text>
      <text x="400" y="66" fill="#ffaa00">"POST /login HTTP/1.1"</text>
      <text x="510" y="66" fill="#ff4444">401</text>

      <text y="88" fill="#8892b0" opacity="0.5">5</text>
      <text x="30" y="88" fill="#8892b0">192.168.1.15</text>
      <text x="160" y="88" fill="#546e7a">- -</text>
      <text x="200" y="88" fill="#00aaff">[08/Jul/2026:10:20:25]</text>
      <text x="400" y="88" fill="#ffaa00">"POST /login HTTP/1.1"</text>
      <text x="510" y="88" fill="#ff4444">401</text>

      <text y="110" fill="#8892b0" opacity="0.5">6</text>
      <text x="30" y="110" fill="#8892b0">203.0.113.42</text>
      <text x="160" y="110" fill="#546e7a">- -</text>
      <text x="200" y="110" fill="#00aaff">[08/Jul/2026:10:21:05]</text>
      <text x="400" y="110" fill="#ffaa00">"GET /admin/config HTTP/1.1"</text>
      <text x="510" y="110" fill="#ffaa00">200</text>

      <text y="132" fill="#8892b0" opacity="0.5">7</text>
      <text x="30" y="132" fill="#8892b0">203.0.113.42</text>
      <text x="160" y="132" fill="#546e7a">- -</text>
      <text x="200" y="132" fill="#00aaff">[08/Jul/2026:10:21:06]</text>
      <text x="400" y="132" fill="#ffaa00">"GET /etc/passwd HTTP/1.1"</text>
      <text x="510" y="132" fill="#ff4444">403</text>

      <text y="154" fill="#8892b0" opacity="0.5">8</text>
      <text x="30" y="154" fill="#8892b0">10.0.0.88</text>
      <text x="160" y="154" fill="#546e7a">- -</text>
      <text x="200" y="154" fill="#00aaff">[08/Jul/2026:10:22:30]</text>
      <text x="400" y="154" fill="#ffaa00">"GET /search?q=' OR 1=1 HTTP/1.1"</text>
      <text x="510" y="154" fill="#ff4444">500</text>
    </g>
  </g>

  <!-- Right: Detected Threats -->
  <g transform="translate(620, 30)">
    <rect width="540" height="340" rx="12" fill="rgba(255,255,255,0.03)" stroke="rgba(255,255,255,0.08)" stroke-width="0.5"/>
    <rect x="0" y="0" width="540" height="40" rx="12" fill="rgba(255,68,68,0.06)"/>
    <rect x="0" y="30" width="540" height="10" fill="rgba(255,68,68,0.06)"/>
    <circle cx="20" cy="20" r="5" fill="#ff4444" filter="url(#termGlow)"/>
    <text x="32" y="25" font-family="'Segoe UI', Arial, sans-serif" font-size="12" font-weight="600" fill="#ff4444">DETECTED THREATS</text>
    <text x="520" y="25" font-family="'Segoe UI', Arial, sans-serif" font-size="11" fill="#8892b0" text-anchor="end">3 alerts</text>

    <!-- Alert 1: Brute Force -->
    <g transform="translate(15, 55)">
      <rect width="510" height="80" rx="8" fill="rgba(255,170,0,0.05)" stroke="rgba(255,170,0,0.2)" stroke-width="0.5"/>
      <rect x="0" y="0" width="4" height="80" rx="2" fill="#ffaa00"/>
      <circle cx="22" cy="22" r="8" fill="rgba(255,170,0,0.2)"/>
      <text x="22" y="26" font-family="'Segoe UI', Arial, sans-serif" font-size="12" fill="#ffaa00" text-anchor="middle">!</text>
      <text x="38" y="26" font-family="'Segoe UI', Arial, sans-serif" font-size="13" font-weight="600" fill="#ffaa00">Brute Force Attack</text>
      <rect x="200" y="12" width="40" height="20" rx="10" fill="rgba(255,170,0,0.15)"/>
      <text x="220" y="26" font-family="'Segoe UI', Arial, sans-serif" font-size="9" fill="#ffaa00" text-anchor="middle">HIGH</text>
      <text x="25" y="48" font-family="'JetBrains Mono', Consolas, monospace" font-size="10" fill="#8892b0">Source IP: </text>
      <text x="100" y="48" font-family="'JetBrains Mono', Consolas, monospace" font-size="10" fill="#ccd6f6">192.168.1.15</text>
      <text x="25" y="66" font-family="'JetBrains Mono', Consolas, monospace" font-size="10" fill="#8892b0">Attempts:  </text>
      <text x="100" y="66" font-family="'JetBrains Mono', Consolas, monospace" font-size="10" fill="#ff4444">5 Failed Logins (threshold: 5)</text>
    </g>

    <!-- Alert 2: Directory Traversal -->
    <g transform="translate(15, 150)">
      <rect width="510" height="80" rx="8" fill="rgba(255,170,0,0.05)" stroke="rgba(255,170,0,0.2)" stroke-width="0.5"/>
      <rect x="0" y="0" width="4" height="80" rx="2" fill="#ffaa00"/>
      <circle cx="22" cy="22" r="8" fill="rgba(255,170,0,0.2)"/>
      <text x="22" y="26" font-family="'Segoe UI', Arial, sans-serif" font-size="12" fill="#ffaa00" text-anchor="middle">!</text>
      <text x="38" y="26" font-family="'Segoe UI', Arial, sans-serif" font-size="13" font-weight="600" fill="#ffaa00">Directory Traversal</text>
      <rect x="210" y="12" width="40" height="20" rx="10" fill="rgba(255,170,0,0.15)"/>
      <text x="230" y="26" font-family="'Segoe UI', Arial, sans-serif" font-size="9" fill="#ffaa00" text-anchor="middle">HIGH</text>
      <text x="25" y="48" font-family="'JetBrains Mono', Consolas, monospace" font-size="10" fill="#8892b0">Source IP: </text>
      <text x="100" y="48" font-family="'JetBrains Mono', Consolas, monospace" font-size="10" fill="#ccd6f6">203.0.113.42</text>
      <text x="25" y="66" font-family="'JetBrains Mono', Consolas, monospace" font-size="10" fill="#8892b0">Request:   </text>
      <text x="100" y="66" font-family="'JetBrains Mono', Consolas, monospace" font-size="10" fill="#ff4444">GET /etc/passwd</text>
    </g>

    <!-- Alert 3: SQL Injection -->
    <g transform="translate(15, 245)">
      <rect width="510" height="80" rx="8" fill="rgba(255,68,68,0.05)" stroke="rgba(255,68,68,0.2)" stroke-width="0.5"/>
      <rect x="0" y="0" width="4" height="80" rx="2" fill="#ff4444"/>
      <circle cx="22" cy="22" r="8" fill="rgba(255,68,68,0.2)"/>
      <text x="22" y="26" font-family="'Segoe UI', Arial, sans-serif" font-size="12" fill="#ff4444" text-anchor="middle">!</text>
      <text x="38" y="26" font-family="'Segoe UI', Arial, sans-serif" font-size="13" font-weight="600" fill="#ff4444">SQL Injection</text>
      <rect x="160" y="12" width="65" height="20" rx="10" fill="rgba(255,68,68,0.15)"/>
      <text x="192" y="26" font-family="'Segoe UI', Arial, sans-serif" font-size="9" fill="#ff4444" text-anchor="middle">CRITICAL</text>
      <text x="25" y="48" font-family="'JetBrains Mono', Consolas, monospace" font-size="10" fill="#8892b0">Source IP: </text>
      <text x="100" y="48" font-family="'JetBrains Mono', Consolas, monospace" font-size="10" fill="#ccd6f6">10.0.0.88</text>
      <text x="25" y="66" font-family="'JetBrains Mono', Consolas, monospace" font-size="10" fill="#8892b0">Payload:   </text>
      <text x="100" y="66" font-family="'JetBrains Mono', Consolas, monospace" font-size="10" fill="#ff4444">' OR 1=1</text>
    </g>
  </g>
</svg>